<?xml version="1.0" encoding="UTF-8"?>
<svg version="1.1" xmlns="http://www.w3.org/2000/svg" width="2991" height="965">
<path d="M0 0 C61.33962957 -1.64302579 124.19453253 14.28520227 176.8125 46.06640625 C177.57675293 46.52337891 178.34100586 46.98035156 179.12841797 47.45117188 C190.96611697 54.57354889 202.02280633 62.44782694 212.8125 71.06640625 C213.35374512 71.4958252 213.89499023 71.92524414 214.45263672 72.36767578 C221.13769269 77.6842056 227.51829243 83.29595026 233.8125 89.06640625 C234.90204274 90.05111441 235.99190304 91.03547128 237.08203125 92.01953125 C242.36283816 96.80939937 247.52064189 101.55950411 252.09765625 107.04296875 C254.13124837 109.4425148 256.28513092 111.71034176 258.4375 114.00390625 C265.07700557 121.29730251 270.94430436 129.1482401 276.8125 137.06640625 C277.31007813 137.72850098 277.80765625 138.3905957 278.3203125 139.07275391 C321.48455589 196.70682888 344.85890317 273.05793682 341.8125 345.06640625 C341.77141113 346.0915332 341.73032227 347.11666016 341.68798828 348.17285156 C338.48131449 420.85062757 314.43507084 493.36036261 267.11230469 549.52246094 C265.75850549 551.13054248 264.43081544 552.75831334 263.1015625 554.38671875 C256.08633973 562.83984433 248.42862466 570.65932641 240.6875 578.44140625 C240.18247955 578.95169373 239.67745911 579.4619812 239.15713501 579.98773193 C232.38113837 586.81832823 225.37072498 593.09225862 217.8125 599.06640625 C216.67801746 599.99536003 215.54491547 600.92600619 214.4140625 601.859375 C165.56591624 641.15584962 105.91855402 664.90709112 43.8125 672.06640625 C43.06535233 672.15486816 42.31820465 672.24333008 41.54841614 672.33447266 C35.07417737 673.04752214 28.66648871 673.24256818 22.15625 673.26953125 C21.05567261 673.27523132 19.95509521 673.2809314 18.82116699 673.2868042 C16.49488265 673.29620723 14.16858528 673.30276937 11.84228516 673.30664062 C8.37767391 673.31622594 4.91368819 673.34724467 1.44921875 673.37890625 C-19.20181131 673.47786198 -39.61185978 671.72936643 -59.8125 667.31640625 C-61.61303833 666.93125854 -61.61303833 666.93125854 -63.44995117 666.53833008 C-122.19116302 653.63179936 -175.68941586 625.4038656 -219.64941406 584.48681641 C-221.21025698 583.04539036 -222.7859711 581.62215294 -224.3671875 580.203125 C-229.35783516 575.71385974 -234.18544965 571.21588724 -238.50390625 566.05859375 C-240.37261177 563.84736448 -242.33984194 561.74781924 -244.3125 559.62890625 C-250.75122629 552.48817232 -256.44745678 544.76976822 -262.1875 537.06640625 C-262.63770508 536.46812012 -263.08791016 535.86983398 -263.55175781 535.25341797 C-315.60236886 465.87263812 -335.85871608 374.80403792 -324.1875 289.49609375 C-314.22147045 221.38214755 -284.78347792 158.71046358 -238.1875 108.06640625 C-236.66584722 106.35880278 -235.14502278 104.65046083 -233.625 102.94140625 C-227.21294576 95.82803358 -220.46938271 89.27961676 -213.1875 83.06640625 C-211.83785156 81.88304687 -211.83785156 81.88304687 -210.4609375 80.67578125 C-182.2546897 56.12428544 -149.8171068 37.02882984 -115.1875 23.06640625 C-114.38038574 22.73946777 -113.57327148 22.4125293 -112.74169922 22.07568359 C-76.88395547 7.74306425 -38.47253397 1.16791621 0 0 Z " fill="#23417F" transform="translate(435.1875,145.93359375)"/>
<path d="M0 0 C3.68146775 0.61447269 6.78081909 1.64634741 10.17578125 3.1875 C11.16102783 3.63391846 12.14627441 4.08033691 13.16137695 4.5402832 C18.45720556 6.99350697 23.73538288 9.48052927 29 12 C30.24136719 12.58128662 30.24136719 12.58128662 31.5078125 13.17431641 C51.65654331 22.7353104 59.94296963 40.05563527 67.34765625 60.3046875 C72.74853032 75.62136898 76.78105714 91.09414154 80 107 C80.27823022 108.35093002 80.55655383 109.7018408 80.83496094 111.05273438 C96.1509009 185.94775611 107.33743632 274.00358313 95 350 C94.8767334 350.78600586 94.7534668 351.57201172 94.62646484 352.38183594 C90.54537968 377.04317253 80.51088646 400.99627941 69 423 C68.60458008 423.76973145 68.20916016 424.53946289 67.80175781 425.33251953 C53.30968004 453.36375381 30.93066532 479.12230099 5.57128906 497.83886719 C4.1063201 498.92143281 2.65790829 500.02630542 1.2109375 501.1328125 C-26.53057311 522.00032048 -59.91458135 535.25356128 -94 541 C-94.69689941 541.12004395 -95.39379883 541.24008789 -96.11181641 541.36376953 C-120.37782221 545.33607738 -146.04837975 544.06113175 -170 539 C-170.92200195 538.81276367 -171.84400391 538.62552734 -172.79394531 538.43261719 C-212.13385329 530.32951981 -248.12089184 510.89721063 -277.32421875 483.48828125 C-279.56621418 481.40338915 -281.8467535 479.40889794 -284.1875 477.4375 C-297.56329134 465.76458148 -308.47359704 450.52045775 -317.97167969 435.61181641 C-318.8355666 434.25773726 -319.71659741 432.9146171 -320.6015625 431.57421875 C-329.90901884 416.93707373 -336.50348135 400.38870239 -342 384 C-342.23557617 383.31583008 -342.47115234 382.63166016 -342.71386719 381.92675781 C-347.13484044 368.92871806 -349.07036629 355.55673315 -351 342 C-351.17797119 340.88270508 -351.35594238 339.76541016 -351.53930664 338.61425781 C-352.01122219 334.91195901 -352.14567601 331.34846517 -352.16796875 327.6171875 C-352.17452484 326.58583427 -352.17452484 326.58583427 -352.18121338 325.53364563 C-352.48987717 258.21984914 -329.50313737 202.38086428 -282.5 154.3125 C-277.26947962 149.15554531 -271.82701532 144.46905491 -266 140 C-265.38334473 139.52336914 -264.76668945 139.04673828 -264.13134766 138.55566406 C-225.7019112 109.08038858 -176.84033033 89.90019366 -128.0078125 89.83203125 C-127.07622818 89.82788712 -126.14464386 89.82374298 -125.18482971 89.81947327 C-122.16484595 89.80982795 -119.14499678 89.80981643 -116.125 89.8125 C-114.56732407 89.81240936 -114.56732407 89.81240936 -112.97817993 89.81231689 C-94.26365383 89.82775244 -75.66173665 90.51578305 -56.99841309 91.85748291 C-54.98781856 92.00086872 -52.97691299 92.13869458 -50.96582031 92.27490234 C-47.24735969 92.52874901 -43.52978159 92.79197356 -39.8125 93.0625 C-38.71832764 93.14161621 -37.62415527 93.22073242 -36.49682617 93.30224609 C-35.51431885 93.37910645 -34.53181152 93.4559668 -33.51953125 93.53515625 C-32.23719604 93.63389038 -32.23719604 93.63389038 -30.92895508 93.73461914 C-29 94 -29 94 -28 95 C-27.62454821 97.94145213 -27.30671499 100.86927334 -27.02734375 103.8203125 C-26.93997452 104.71233368 -26.85260529 105.60435486 -26.7625885 106.52340698 C-26.57809249 108.41806497 -26.39582223 110.31294079 -26.21557617 112.20800781 C-25.94060772 115.09240034 -25.65739293 117.97589358 -25.37304688 120.859375 C-25.19481438 122.70047268 -25.01706487 124.54161719 -24.83984375 126.3828125 C-24.75548569 127.2403714 -24.67112762 128.0979303 -24.58421326 128.98147583 C-24.14229155 133.67980744 -23.91455397 138.28099449 -24 143 C-28.37021235 142.8790589 -32.74031378 142.7547435 -37.11035156 142.62768555 C-38.58786606 142.58515683 -40.06540457 142.54345168 -41.54296875 142.50268555 C-48.69022871 142.30496422 -55.82575604 142.09424093 -62.96086121 141.61613464 C-76.49835975 140.73073657 -90.06174716 140.77689978 -103.62231445 140.75976562 C-106.58435262 140.75536377 -109.54610232 140.74137587 -112.50805664 140.71875 C-135.4183434 140.47802216 -135.4183434 140.47802216 -158 144 C-159.45159822 144.30793235 -160.90420032 144.61116262 -162.35766602 144.91015625 C-208.17989958 154.41691172 -248.77628369 183.2637623 -274.63964844 221.92041016 C-278.04471065 227.12577985 -281.13706461 232.47693281 -284 238 C-284.50225098 238.96558838 -284.50225098 238.96558838 -285.01464844 239.95068359 C-297.23657528 263.80352392 -303.41235388 290.1411818 -303.375 316.9375 C-303.37445618 317.60642273 -303.37391235 318.27534546 -303.37335205 318.96453857 C-303.32649501 331.61856443 -301.93525257 343.68145161 -299 356 C-298.79632813 356.87769043 -298.59265625 357.75538086 -298.3828125 358.65966797 C-290.71430852 390.75969428 -273.56902178 418.30081476 -251 442 C-250.34644531 442.70640625 -249.69289063 443.4128125 -249.01953125 444.140625 C-224.82422811 469.52247818 -190.86684358 485.06308361 -157 492 C-155.19208984 492.37318359 -155.19208984 492.37318359 -153.34765625 492.75390625 C-111.17809915 499.79036677 -65.11190289 488.59114626 -30.25 464.125 C1.6698091 441.20448014 25.31370653 410.29515706 38 373 C38.29261719 372.18660156 38.58523438 371.37320312 38.88671875 370.53515625 C39.6485631 368.37055088 40.3349048 366.19627592 41 364 C41.31710937 362.98808594 41.63421875 361.97617187 41.9609375 360.93359375 C48.23064084 339.46103832 48.4765783 317.49171557 48.3264122 295.30435944 C48.31229801 293.02995107 48.30362915 290.75558063 48.29653931 288.48114014 C48.20973376 261.9576589 47.61862506 235.47874777 46 209 C45.94672546 208.12849304 45.89345093 207.25698608 45.83856201 206.35906982 C44.47815693 184.48528176 42.45158793 162.71782007 39.53271484 140.99658203 C39.17892452 138.36337918 38.84075067 135.72965714 38.51025391 133.09326172 C35.19020289 106.64187017 29.50345471 80.71785527 23.61865234 54.73190308 C23.22011729 52.9720146 22.8233332 51.21172823 22.42871094 49.45095825 C20.5705103 41.17295583 18.66413249 33.00365863 15.625 25.0625 C15.32537354 24.2689209 15.02574707 23.4753418 14.71704102 22.65771484 C11.30655607 13.87244979 7.68852445 6.67486329 0 1 C0 0.67 0 0.34 0 0 Z " fill="#FBC80A" transform="translate(567,171)"/>
<path d="M0 0 C13.88355404 11.46551851 17.44808538 25.12148751 21.1796875 41.98046875 C21.64049313 44.00531881 22.10276719 46.0298352 22.56643677 48.05403137 C23.77452035 53.34594334 24.96278461 58.64210953 26.14678955 63.93945312 C27.36181873 69.35886415 28.59579766 74.77395449 29.828125 80.18945312 C32.23717514 90.78885606 34.62528141 101.39285659 37 112 C39.65857609 102.31871962 42.07310251 92.61386997 44.26379395 82.81711769 C44.76602091 80.57294266 45.27260401 78.32978757 45.78027344 76.08683777 C47.22027601 69.722099 48.65417432 63.35599985 50.08203125 56.98852539 C50.96323863 53.0602208 51.8504936 49.13332045 52.74133301 45.20718956 C53.07526871 43.72997909 53.40696668 42.25226062 53.73620605 40.77399635 C57.51827305 23.79713167 61.20653931 9.54508224 76 -1 C90.22703733 -9.57658279 106.64826877 -12.66063962 123.015625 -9.2734375 C136.78474362 -5.60763319 149.1647059 1.90502068 156.66465759 14.39828491 C161.72411081 24.25587328 163.51328848 35.95652631 165.96484375 46.7109375 C166.35038059 48.38573619 166.73632486 50.06044113 167.12263489 51.73506165 C168.17836009 56.31751009 169.22794261 60.90134543 170.27622986 65.48550034 C171.16694667 69.3775949 172.06091096 73.26894056 172.95488167 77.16028881 C175.1859308 86.87192473 177.41161643 96.58478099 179.63427734 106.29833984 C182.021121 116.72929793 184.4127056 127.15915888 186.80712891 137.58837891 C189.80312832 150.63815456 192.79584049 163.68867924 195.78449535 176.74013901 C196.11480245 178.1825743 196.44511104 179.62500925 196.77542114 181.06744385 C197.0200078 182.13555365 197.0200078 182.13555365 197.2695356 183.22524142 C198.42071472 188.25169863 199.57366321 193.27774808 200.7272644 198.3036499 C202.14545611 204.48261392 203.56070757 210.66224311 204.97237784 216.84270042 C205.70060585 220.03065156 206.43052051 223.21819966 207.16300392 226.40517616 C207.96488515 229.89518385 208.76185502 233.38627835 209.55761719 236.87768555 C209.79224639 237.89369528 210.02687559 238.90970501 210.26861477 239.95650291 C210.48360654 240.90439501 210.69859831 241.8522871 210.92010498 242.8289032 C211.10576397 243.63987803 211.29142296 244.45085287 211.48270798 245.2864027 C212.15811508 248.82943607 212.55262715 252.42101722 213 256 C191.88 256 170.76 256 149 256 C142.85411255 230.93652658 137.01710881 205.81497202 131.29876709 180.65106201 C130.18526187 175.75331349 129.0690486 170.85618233 127.953125 165.95898438 C124.58087725 151.1556223 121.21043794 136.35185543 117.85858345 121.54386044 C116.92871329 117.43620194 115.99782392 113.32877468 115.06690598 109.22135353 C114.41111945 106.3255322 113.75700786 103.4293358 113.10293579 100.53312683 C112.705916 98.78093571 112.30881567 97.02876284 111.91162109 95.27661133 C111.73180569 94.47799746 111.55199028 93.67938358 111.36672592 92.85656929 C110.68420567 89.85223533 109.97498895 86.92496685 109 84 C108.58776688 85.81473061 108.58776688 85.81473061 108.16720581 87.66612244 C105.55118336 99.18143839 102.93353984 110.69638486 100.31439018 122.21098995 C98.96857047 128.12786715 97.62328243 134.04486409 96.27929688 139.9621582 C94.97734181 145.69430328 93.67387614 151.42610309 92.36944962 157.15768623 C91.87707038 159.32232495 91.38519616 161.48707863 90.89388657 163.65196037 C89.51252548 169.73785195 88.11598438 175.81997474 86.70827484 181.89982224 C85.9627198 185.16317852 85.24415123 188.43186496 84.52642822 191.70144653 C84.02614044 193.91640359 83.52532137 196.13124072 83.02392578 198.34594727 C82.80972929 199.35148368 82.5955328 200.35702009 82.3748455 201.39302731 C79.3553465 214.50615448 72.88856175 224.83935834 61.6953125 232.390625 C51.26364921 238.61938627 39.9871764 240.58528663 27.98828125 238.46875 C15.68254979 235.31079381 5.6514455 229.14453924 -1.375 218.25 C-8.48659308 204.82524248 -10.70873791 188.75736455 -14.04296875 174.08203125 C-14.61728657 171.57180114 -15.1921086 169.06168633 -15.76741028 166.55168152 C-17.11881845 160.65142348 -18.46630888 154.75028527 -19.81148177 148.84860295 C-22.36983692 137.624433 -24.93479998 126.40177966 -27.50414467 115.18012047 C-28.34688986 111.49454926 -29.18619845 107.80820714 -30.02519226 104.1217804 C-30.53775171 101.87909231 -31.0504254 99.63643032 -31.56323242 97.39379883 C-31.79647217 96.36477951 -32.02971191 95.33576019 -32.27001953 94.27555847 C-32.48438156 93.34079681 -32.69874359 92.40603516 -32.91960144 91.44294739 C-33.10521731 90.62837476 -33.29083319 89.81380213 -33.48207378 88.97454548 C-33.94240264 86.94382204 -33.94240264 86.94382204 -35 85 C-38.15870777 98.71629817 -41.31672042 112.43275625 -44.47400284 126.14938259 C-45.97925082 132.68883494 -47.48465633 139.22825094 -48.990448 145.76757812 C-57.32826603 181.95469589 -57.32826603 181.95469589 -65.5859375 218.16015625 C-65.90270886 219.5559859 -66.21948621 220.95181419 -66.53627014 222.34764099 C-67.89914893 228.35543116 -69.25711026 234.36429238 -70.6081543 240.37475586 C-71.06290242 242.38527333 -71.51772962 244.39577291 -71.97265625 246.40625 C-72.16930878 247.289142 -72.3659613 248.172034 -72.568573 249.0816803 C-73.88668128 254.88668128 -73.88668128 254.88668128 -75 256 C-76.9943173 256.09405142 -78.99199543 256.11743249 -80.98852539 256.11352539 C-82.26977798 256.11344986 -83.55103058 256.11337433 -84.87110901 256.11329651 C-86.27995848 256.10818909 -87.68880756 256.10297309 -89.09765625 256.09765625 C-90.53112234 256.09579202 -91.96458907 256.09436814 -93.39805603 256.09336853 C-97.17759957 256.08954372 -100.9571049 256.07971377 -104.7366333 256.06866455 C-108.59069298 256.05844963 -112.44475882 256.05387074 -116.29882812 256.04882812 C-123.86590287 256.03809146 -131.43294609 256.02101549 -139 256 C-136.23286452 242.63256299 -133.29018737 229.31288202 -130.23828125 216.0078125 C-129.77398837 213.9776589 -129.30984606 211.94747086 -128.84584045 209.91725159 C-126.54833979 199.86906645 -124.2433289 189.82260298 -121.93870544 179.77604961 C-120.84992942 175.02953673 -119.76143328 170.28295971 -118.67310333 165.53634453 C-118.11542778 163.10421722 -117.5576419 160.6721152 -116.99974823 158.24003792 C-113.22993899 141.80243008 -109.49404798 125.35752297 -105.7900238 108.90496826 C-103.8138016 100.1275962 -101.82721978 91.35257846 -99.83811665 82.57811737 C-98.47331573 76.55432329 -97.11432822 70.52933716 -95.76846313 64.50128174 C-94.50175252 58.8279999 -93.22052063 53.15818928 -91.92852592 47.49061394 C-91.4580319 45.41453528 -90.99288002 43.33723713 -90.53364754 41.25863838 C-86.69374302 23.89907216 -82.24190355 8.70862011 -66.75 -1.8125 C-46.56326069 -13.93016664 -19.40367295 -13.56798184 0 0 Z " fill="#23417F" transform="translate(1785,360)"/>
<path d="M0 0 C8.62371324 2.10366338 17.1291223 4.54311066 25.5625 7.3125 C26.40651367 7.57168213 27.25052734 7.83086426 28.12011719 8.09790039 C36.50573883 10.93578891 40.47007001 16.24322914 44.4375 24 C57.08966223 49.75378588 61.0612963 80.46374523 65.5625 108.5 C65.84906464 110.26866425 65.84906464 110.26866425 66.14141846 112.07305908 C76.63637701 177.09339907 80.03770237 242.45688656 80.36200333 308.26519775 C80.37476219 310.33639464 80.39470881 312.40739959 80.4168396 314.47851562 C80.65285629 338.03654734 78.67281987 360.62094204 71 383 C70.79181641 383.63599121 70.58363281 384.27198242 70.36914062 384.92724609 C62.49970394 408.83217336 49.08987823 430.55438943 31.48681641 448.47802734 C30.005623 449.99424405 28.55440711 451.535026 27.10546875 453.08203125 C-1.43275279 483.12706321 -43.16005249 499.36361015 -84.12573242 500.45117188 C-113.28568388 500.8071935 -140.48069823 494.07620137 -166 480 C-166.62181152 479.66274902 -167.24362305 479.32549805 -167.88427734 478.97802734 C-178.54399485 473.13666849 -187.81302068 465.9266984 -197 458 C-197.54736816 457.52852539 -198.09473633 457.05705078 -198.65869141 456.57128906 C-204.58206964 451.42686029 -210.08010556 446.11259612 -215 440 C-216.17175781 438.54980469 -216.17175781 438.54980469 -217.3671875 437.0703125 C-230.60787515 420.41587105 -240.06487641 402.03710859 -247 382 C-247.36867188 380.99324219 -247.73734375 379.98648437 -248.1171875 378.94921875 C-256.80721029 353.51911329 -257.62728982 325.14705966 -252 299 C-251.83902832 298.20609863 -251.67805664 297.41219727 -251.51220703 296.59423828 C-244.92774263 264.65863717 -228.41543454 237.29378229 -206 214 C-205.38382812 213.32066406 -204.76765625 212.64132812 -204.1328125 211.94140625 C-175.56704343 181.40777308 -131.1618866 164.65836709 -90.12493896 162.87506104 C-82.64641919 162.66335084 -75.16840528 162.66573357 -67.6875 162.6875 C-66.5194281 162.68799347 -65.3513562 162.68848694 -64.14788818 162.68899536 C-45.27508563 162.71309102 -26.46614297 163.36631761 -7.625 164.4375 C-6.43345306 164.50480316 -5.24190613 164.57210632 -4.01425171 164.64144897 C-0.66778611 164.83472156 2.6779016 165.03739245 6.0234375 165.24609375 C7.02488297 165.30657898 8.02632843 165.36706421 9.05812073 165.42938232 C9.9636821 165.48934387 10.86924347 165.54930542 11.80224609 165.61108398 C12.59343842 165.66215805 13.38463074 165.71323212 14.19979858 165.76585388 C16 166 16 166 17 167 C17.53325924 171.44046763 17.76418682 175.91330858 18.0625 180.375 C18.15192871 181.68364014 18.24135742 182.99228027 18.33349609 184.34057617 C18.99354438 194.57761084 19.22983462 204.74682239 19 215 C13.56900919 215.10511595 8.15580326 215.08360527 2.73217773 214.78393555 C-15.73123227 213.76676716 -34.20429762 213.77797929 -52.68994141 213.75976562 C-57.43965998 213.75424887 -62.18909665 213.73008735 -66.93872643 213.70179367 C-70.6589535 213.68300901 -74.37911385 213.67795381 -78.09938431 213.67642975 C-79.84931642 213.67344907 -81.59924871 213.66558115 -83.34913254 213.65224457 C-97.93234603 213.54882114 -112.19954645 214.80232908 -126.0625 219.6875 C-126.80016602 219.94241211 -127.53783203 220.19732422 -128.29785156 220.45996094 C-141.85622475 225.31176015 -153.65075119 232.1937967 -165 241 C-165.76957031 241.59554687 -166.53914063 242.19109375 -167.33203125 242.8046875 C-185.71221927 257.95837309 -198.44073985 281.86747064 -203 305 C-203.17772949 305.89106445 -203.35545898 306.78212891 -203.53857422 307.70019531 C-204.92933933 315.28690453 -205.31381204 322.60884619 -205.25 330.3125 C-205.24323242 331.49875977 -205.23646484 332.68501953 -205.22949219 333.90722656 C-204.99615889 353.71885164 -200.97247811 371.3514913 -192 389 C-191.53851563 389.95519531 -191.07703125 390.91039062 -190.6015625 391.89453125 C-177.70169441 417.35872173 -154.67399124 434.49105143 -128.4296875 444.33984375 C-125.30473288 445.35718156 -122.19180866 446.218899 -119 447 C-117.86949219 447.28488281 -116.73898437 447.56976562 -115.57421875 447.86328125 C-83.04704558 455.23517549 -49.27097111 449.75187373 -21 432 C-17.43609751 429.5418211 -14.20666175 426.9026312 -11 424 C-10.18660156 423.32710937 -9.37320313 422.65421875 -8.53515625 421.9609375 C2.53928044 412.57582166 10.44668425 400.84614406 17 388 C17.31066406 387.39349609 17.62132812 386.78699219 17.94140625 386.16210938 C28.14568062 365.77490848 30.15584974 344.68268871 30.16796875 322.2265625 C30.17204679 320.36476599 30.17632903 318.50296992 30.18080139 316.64117432 C30.19243649 310.63577294 30.19096778 304.630409 30.1875 298.625 C30.18723312 297.60103371 30.18696625 296.57706741 30.18669128 295.52207184 C30.15561927 200.85422708 27.05137615 105.34050903 3.078125 13.234375 C1.93921418 8.84730696 0.95582293 4.43012209 0 0 Z " fill="#FBC80A" transform="translate(527,157)"/>
<path d="M0 0 C151.25360825 0 151.25360825 0 178 23 C178.62390625 23.49113281 179.2478125 23.98226563 179.890625 24.48828125 C196.47093621 37.74506161 207.16481498 60.21781854 210 81 C210.29011412 85.42067046 210.33393469 89.82078523 210.3125 94.25 C210.30512817 96.0446167 210.30512817 96.0446167 210.29760742 97.87548828 C209.94142494 124.70059528 198.25697323 147.40613664 179.2109375 165.984375 C170.41860465 174 170.41860465 174 167 174 C167.40275146 174.80477783 167.80550293 175.60955566 168.22045898 176.4387207 C171.90721411 183.80809406 175.58920912 191.17982547 179.26650047 198.55392647 C181.8524127 203.73931665 184.43990437 208.92391726 187.028162 214.10813713 C188.71783341 217.49270627 190.4067373 220.87765417 192.09399414 224.26342773 C193.75482663 227.59608552 195.41770422 230.92771594 197.08190727 234.25869179 C197.70483713 235.50636753 198.32707596 236.75438859 198.94853401 238.00279808 C202.86273538 245.87935031 202.86273538 245.87935031 206.98995972 253.64517212 C207.31530669 254.23767163 207.64065367 254.83017115 207.97585964 255.44062519 C208.88199085 257.0805194 209.797512 258.71521501 210.71360779 260.3495636 C212 263 212 263 212 266 C190.88 266 169.76 266 148 266 C144.7 259.4 141.4 252.8 138 246 C134.9235581 240.16592391 134.9235581 240.16592391 131.83984375 234.33569336 C125.23212822 221.83542662 119.03415862 209.12117171 112.74072266 196.4609375 C106.35684974 183.62559982 99.92131659 170.83177292 93.20214844 158.16845703 C90.00419376 152.13586499 86.92990165 146.04363155 83.875 139.9375 C83.30007812 138.79990234 82.72515625 137.66230469 82.1328125 136.49023438 C81.59140625 135.40935547 81.05 134.32847656 80.4921875 133.21484375 C80.01120605 132.25698975 79.53022461 131.29913574 79.03466797 130.31225586 C78 128 78 128 78 126 C79.18964355 125.98541748 80.37928711 125.97083496 81.60498047 125.95581055 C86.05953583 125.8974143 90.51360734 125.82018712 94.96777344 125.73754883 C96.88794037 125.70449254 98.80819997 125.67640188 100.72851562 125.65356445 C103.50430439 125.61966059 106.27925852 125.56733091 109.0546875 125.51171875 C109.8998996 125.50532883 110.74511169 125.4989389 111.61593628 125.49235535 C121.11215276 125.2631508 129.90109779 123.03296813 136.8125 116.2109375 C143.23035162 109.28500596 145.97096128 102.43758534 146 93 C145.37556923 85.04529496 141.77199875 77.7799398 136.14453125 72.140625 C117.77476047 57.3274765 85.72534773 64.3467657 67 64 C67 130.66 67 197.32 67 266 C44.89 266 22.78 266 0 266 C0 178.22 0 90.44 0 0 Z " fill="#23417F" transform="translate(2223,350)"/>
<path d="M0 0 C1.10375977 -0.00029205 2.20751953 -0.00058411 3.34472656 -0.00088501 C6.95361493 0.00049624 10.56229076 0.01600036 14.17114258 0.03173828 C16.68890775 0.0354727 19.20667438 0.03831764 21.72444153 0.04031372 C27.64920027 0.04714146 33.57389205 0.06286656 39.49861652 0.0830127 C48.10243286 0.11162554 56.70627522 0.12198926 65.31012726 0.1346283 C77.33287141 0.15396229 89.35541988 0.19230852 101.37817383 0.22705078 C101.37817383 21.34705078 101.37817383 42.46705078 101.37817383 64.22705078 C93.81911133 64.24123047 86.26004883 64.25541016 78.47192383 64.27001953 C73.67760642 64.29008103 68.88338445 64.31160276 64.08911133 64.33837891 C56.48262813 64.38072241 48.87638689 64.41771429 41.26977539 64.42260742 C35.13577472 64.42689188 29.00231599 64.45536815 22.8684845 64.50048256 C20.53061583 64.51345263 18.1926823 64.51776701 15.8547821 64.51320457 C12.57487777 64.50829543 9.29655537 64.53440767 6.0168457 64.56762695 C5.05442963 64.55900131 4.09201355 64.55037567 3.10043335 64.54148865 C-3.30155293 64.64988433 -7.70051784 66.03227649 -12.62182617 70.22705078 C-16.37484806 75.03861731 -18.0085736 78.87549065 -17.89526367 85.03955078 C-17.3106592 89.71638659 -15.37862791 93.58030391 -11.93823242 96.80517578 C-7.52308216 100.10941727 -3.83674491 101.34286812 1.69335938 101.36889648 C2.53912033 101.37593094 3.38488129 101.38296539 4.25627136 101.39021301 C5.62178886 101.39645943 5.62178886 101.39645943 7.01489258 101.40283203 C8.97518933 101.42606814 10.93547577 101.45018689 12.89575195 101.47509766 C15.96035275 101.50987568 19.02458344 101.5393683 22.08935547 101.55297852 C49.12743562 101.69629379 70.85878432 107.7924532 90.90161133 126.59423828 C106.34641299 142.67159155 113.80533425 164.98137748 113.52661133 187.00048828 C112.46941236 209.98065535 103.48390559 230.63063115 86.88989258 246.62548828 C71.12798254 260.3091613 52.69199815 266.41008783 31.95678711 266.34057617 C30.81474319 266.3407222 29.67269928 266.34086823 28.49604797 266.34101868 C24.73017461 266.34032334 20.96435103 266.33254862 17.19848633 266.32470703 C14.5838931 266.32284151 11.96929952 266.32141824 9.35470581 266.32041931 C3.18189399 266.31731635 -2.99090004 266.30911696 -9.16370404 266.29906982 C-16.88411633 266.2867776 -24.60453153 266.28131795 -32.32495117 266.27587891 C-46.09059002 266.26615092 -59.85619006 266.24611676 -73.62182617 266.22705078 C-73.62182617 245.10705078 -73.62182617 223.98705078 -73.62182617 202.22705078 C-65.96737305 202.18966797 -58.31291992 202.15228516 -50.42651367 202.11376953 C-45.5775328 202.08349391 -40.72858882 202.05234862 -35.87963867 202.01806641 C-28.18304291 201.96373423 -20.48652012 201.91262435 -12.78979492 201.88061523 C-6.58458593 201.85460765 -0.37962185 201.81422268 5.82543564 201.76386452 C8.19286935 201.74717869 10.56034545 201.73567513 12.92782974 201.72943687 C16.24373302 201.71981476 19.55900725 201.69177681 22.87475586 201.65942383 C23.85371323 201.66085892 24.83267059 201.66229401 25.84129333 201.66377258 C31.10130419 201.59118452 34.84033246 201.1889036 39.37817383 198.22705078 C43.2626618 194.12675792 45.11887991 190.51748043 45.75317383 184.91455078 C45.16709032 179.15139627 43.10037673 174.9957997 39.06567383 170.85205078 C32.76854431 167.0444841 26.57303533 166.94566416 19.41333008 166.95361328 C17.45824646 166.93330228 15.50316839 166.91245113 13.5480957 166.89111328 C10.507602 166.86868681 7.46732996 166.8521026 4.42675781 166.84619141 C-11.16645132 166.79522904 -25.9397664 166.03826319 -39.99682617 158.47705078 C-40.98912231 157.9594519 -40.98912231 157.9594519 -42.00146484 157.43139648 C-47.77437742 154.3260503 -52.79875237 150.67543951 -57.62182617 146.22705078 C-58.99274414 144.99341797 -58.99274414 144.99341797 -60.39135742 143.73486328 C-76.45280805 128.57426009 -85.20412383 107.69653277 -85.83911133 85.72705078 C-86.18361406 64.00795321 -78.79719396 43.27957979 -63.80419922 27.4543457 C-62.42243616 26.03312384 -61.02246096 24.62967794 -59.62182617 23.22705078 C-58.89092773 22.48455078 -58.1600293 21.74205078 -57.40698242 20.97705078 C-41.95606009 6.24544513 -20.98638104 -0.14836872 0 0 Z " fill="#23417F" transform="translate(1315.621826171875,349.77294921875)"/>
<path d="M0 0 C2.14903463 0.0056114 4.29807316 0.00987417 6.44711304 0.01286316 C12.03982577 0.02419052 17.63229608 0.05355008 23.22491455 0.0869751 C29.96916699 0.12340712 36.71350155 0.13689491 43.45782471 0.15433502 C53.64652971 0.18319727 63.83470524 0.24076841 74.0234375 0.29296875 C74.0234375 21.41296875 74.0234375 42.53296875 74.0234375 64.29296875 C67.62839844 64.31875 61.23335937 64.34453125 54.64453125 64.37109375 C50.5657165 64.39629377 46.48697359 64.42265101 42.40820312 64.453125 C35.95027503 64.50126596 29.49251347 64.54538307 23.03442383 64.56396484 C17.8211235 64.57923511 12.60826227 64.61386199 7.39515877 64.66127777 C5.4175507 64.67598545 3.43987991 64.68400358 1.46221733 64.6848526 C-19.12250981 64.70255865 -37.00084763 68.23194629 -52.9765625 82.29296875 C-53.66492187 82.89882813 -54.35328125 83.5046875 -55.0625 84.12890625 C-67.93462048 96.21193122 -74.73470111 113.13915121 -76.26171875 130.54296875 C-76.84255444 151.15000884 -69.28068124 169.00240077 -55.45703125 183.9375 C-37.88239944 200.62648107 -16.22996077 201.32407716 7.0234375 202.29296875 C7.0234375 179.19296875 7.0234375 156.09296875 7.0234375 132.29296875 C29.1334375 132.29296875 51.2434375 132.29296875 74.0234375 132.29296875 C74.0234375 176.51296875 74.0234375 220.73296875 74.0234375 266.29296875 C58.1421875 266.39609375 42.2609375 266.49921875 25.8984375 266.60546875 C18.44612549 266.67374878 18.44612549 266.67374878 10.84326172 266.7434082 C4.65844727 266.76599121 4.65844727 266.76599121 1.74026489 266.77018738 C-0.24799234 266.77774036 -2.2362304 266.79505684 -4.22433472 266.82084656 C-38.89899035 267.24717288 -72.4932023 256.37179786 -97.9765625 232.29296875 C-98.52006348 231.79039551 -99.06356445 231.28782227 -99.62353516 230.77001953 C-122.97140369 209.05941097 -139.47492077 178.12863234 -141.15356445 145.89404297 C-141.86089083 104.95928995 -132.62328512 69.78390536 -104.07543945 39.3449707 C-75.79285216 10.20595917 -39.52145555 -0.30786022 0 0 Z " fill="#23417F" transform="translate(2587.9765625,349.70703125)"/>
<path d="M0 0 C0.82959229 0.00563965 1.65918457 0.0112793 2.51391602 0.01708984 C17.47516062 0.31110399 30.61536099 5.48144888 41.49609375 15.890625 C49.56040566 24.80305528 52.43395855 35.52900715 55.00219727 46.98999023 C55.32137147 48.38854075 55.32137147 48.38854075 55.64699364 49.81534481 C56.35356854 52.91630713 57.05371544 56.01868422 57.75390625 59.12109375 C58.26152228 61.35455376 58.76955417 63.58791928 59.27796936 65.82119751 C60.65386352 71.86994437 62.024307 77.91991444 63.39380646 83.97011185 C64.82813921 90.30234529 66.26747379 96.6334412 67.70654297 102.96459961 C68.29714694 105.56336344 68.88773348 108.16213122 69.47827148 110.76091003 C69.62584231 111.41031494 69.77341314 112.05971985 69.92545581 112.72880369 C70.9859815 117.39624341 72.04555605 122.06389848 73.10473633 126.73164368 C77.29929003 145.21567215 81.50910751 163.69617223 85.72978187 182.17425323 C86.3404064 184.84765703 86.950912 187.52108799 87.56141537 190.19451946 C90.05973241 201.1347684 92.55842887 212.07493064 95.05813599 223.01486206 C96.42467455 228.99590481 97.79013885 234.97719189 99.15481377 240.95866013 C99.65745266 243.16087167 100.16048481 245.36299349 100.66392708 247.56502151 C101.34806204 250.55752832 102.03089006 253.55033031 102.71337891 256.54321289 C103.01687429 257.86852854 103.01687429 257.86852854 103.32650089 259.22061825 C104.6875 265.19841451 104.6875 265.19841451 104.6875 266.3125 C83.5675 266.3125 62.4475 266.3125 40.6875 266.3125 C37.3124966 256.1874898 37.3124966 256.1874898 36.3690033 252.04655457 C36.15214874 251.10489944 35.93529419 250.16324432 35.71186829 249.1930542 C35.48589462 248.19115051 35.25992096 247.18924683 35.02709961 246.15698242 C34.65551727 244.53464439 34.65551727 244.53464439 34.27642822 242.87953186 C33.45997264 239.30996864 32.64988362 235.73899285 31.83984375 232.16796875 C31.26312647 229.64056246 30.68601623 227.11324581 30.10853577 224.58601379 C28.73954508 218.59043619 27.37456685 212.59395812 26.01153141 206.59702426 C24.49965484 199.94625105 22.98266395 193.29664836 21.46520114 186.64714789 C17.86511767 170.87064136 14.27507972 155.09185405 10.6875 139.3125 C10.15944758 136.99025395 9.63139181 134.66800865 9.10333252 132.34576416 C6.29653889 120.00168711 3.49113959 107.65729379 0.6875 95.3125 C-1.04510656 100.19516196 -2.26735479 105.09912537 -3.4128418 110.1418457 C-3.61364633 111.0148595 -3.81445086 111.88787331 -4.02134037 112.78734207 C-4.68758232 115.68702448 -5.34963891 118.58764594 -6.01171875 121.48828125 C-6.48388381 123.54684988 -6.95632203 125.60535588 -7.42901611 127.6638031 C-8.43417313 132.04342815 -9.43752788 136.42346053 -10.43942261 140.80383301 C-11.99983529 147.62605687 -13.56409153 154.44739539 -15.12915039 161.26855469 C-16.69796211 168.10675001 -18.2665957 174.94498567 -19.83384705 181.78353882 C-24.28713665 201.21420665 -28.76327237 220.63952862 -33.25 240.0625 C-35.250625 248.725 -37.25125 257.3875 -39.3125 266.3125 C-60.4325 266.3125 -81.5525 266.3125 -103.3125 266.3125 C-102.18751351 256.18762161 -102.18751351 256.18762161 -101.2840271 252.27825928 C-101.08034515 251.38554038 -100.87666321 250.49282148 -100.66680908 249.5730505 C-100.44466736 248.62307469 -100.22252563 247.67309889 -99.99365234 246.69433594 C-99.75689789 245.66335313 -99.52014343 244.63237032 -99.2762146 243.57014561 C-98.48835967 240.14461121 -97.69335121 236.72077763 -96.8984375 233.296875 C-96.33404337 230.8483518 -95.77014095 228.39971521 -95.20669556 225.95097351 C-94.00121246 220.71614241 -92.79281953 215.48199725 -91.58154297 210.24850464 C-88.71172182 197.84901735 -85.85320362 185.44692245 -82.99460602 173.04484367 C-82.34519008 170.22745157 -81.69546659 167.41013065 -81.04549408 164.5928669 C-76.74877317 145.96770137 -72.49195364 127.33420274 -68.29072952 108.6872139 C-67.48667595 105.1190988 -66.68144647 101.55125115 -65.87582397 97.98348999 C-65.35550907 95.67877665 -64.83521461 93.37405869 -64.31494141 91.06933594 C-64.06284849 89.95262072 -63.81075558 88.83590549 -63.55102348 87.68535042 C-62.07003204 81.12065786 -60.59710634 74.5542152 -59.12955284 67.98650646 C-58.22184198 63.93324633 -57.30654792 59.88172621 -56.38920212 55.83063698 C-55.97026875 53.97287601 -55.55460364 52.11437434 -55.14256668 50.25507164 C-52.63985151 38.96768416 -50.26082034 28.86644046 -43.3125 19.3125 C-42.77625 18.508125 -42.24 17.70375 -41.6875 16.875 C-30.89784574 5.23353093 -15.55773856 -0.11193768 0 0 Z " fill="#23417F" transform="translate(1531.3125,349.6875)"/>
<path d="M0 0 C8.13352699 6.53194445 12.51082799 14.71800122 14.98828125 24.68383789 C15.19820709 25.50539651 15.40813293 26.32695513 15.62442017 27.17340946 C18.43557411 38.30070162 20.97024245 49.49502284 23.5234375 60.68359375 C24.08707977 63.14303481 24.6509906 65.60241433 25.21514893 68.06173706 C26.56474827 73.94832042 27.91154328 79.83553824 29.25679374 85.7231164 C30.34255343 90.47484224 31.42937354 95.22632434 32.51696777 99.97763062 C32.67200657 100.65494238 32.82704537 101.33225415 32.98678231 102.03009051 C33.30088087 103.40224755 33.61498377 104.77440359 33.92909098 106.14655864 C35.98692697 115.13630027 38.04403686 124.12620734 40.09906006 133.11659241 C43.85269518 149.53724264 47.61828095 165.95508582 51.39567566 182.37029076 C52.87439334 188.79917938 54.35001611 195.22877879 55.8252182 201.65847492 C56.9713656 206.65320105 58.11930177 211.64750094 59.27148438 216.64083862 C60.33767341 221.26189433 61.39883046 225.88407559 62.45598602 230.50720596 C62.8392598 232.17917481 63.22440284 233.85071646 63.6115799 235.52178574 C64.13441435 237.77944108 64.65056803 240.03852225 65.16503906 242.2980957 C65.45364807 243.55338577 65.74225708 244.80867584 66.03961182 246.102005 C66.6484375 249.375 66.6484375 249.375 66.6484375 254.375 C45.5284375 254.375 24.4084375 254.375 2.6484375 254.375 C-0.64718231 240.0169559 -3.9428004 225.65891142 -7.23826122 211.30083084 C-9.01174103 203.57391579 -10.78524263 195.84700574 -12.55883789 188.12011719 C-20.49620901 153.53989167 -28.42949524 118.95873551 -36.3515625 84.375 C-38.00843574 87.39884336 -38.91194764 90.23670384 -39.67715454 93.59376526 C-39.92076721 94.6509375 -40.16437988 95.70810974 -40.41537476 96.7973175 C-40.676138 97.95289658 -40.93690125 99.10847565 -41.20556641 100.29907227 C-41.48561523 101.52115387 -41.76566406 102.74323547 -42.05419922 104.00234985 C-42.82367582 107.36075229 -43.58677246 110.72057609 -44.34877062 114.08068204 C-45.15542477 117.63259377 -45.9679752 121.18315624 -46.77987671 124.73387146 C-48.3256293 131.49805404 -49.86612838 138.26342178 -51.40474355 145.02923101 C-53.12388946 152.58780959 -54.84861815 160.14511007 -56.57396364 167.70227551 C-59.35655962 179.89071813 -62.13549794 192.07998991 -64.91113281 204.27001953 C-68.71460237 220.97397661 -72.53130434 237.67487405 -76.3515625 254.375 C-97.4715625 254.375 -118.5915625 254.375 -140.3515625 254.375 C-139.72479074 248.10728241 -139.1403888 242.75692161 -137.73876953 236.75878906 C-137.57660194 236.05682655 -137.41443436 235.35486404 -137.2473526 234.63162994 C-136.70718473 232.29989781 -136.15822183 229.97032816 -135.609375 227.640625 C-135.2132198 225.93741484 -134.81768014 224.23406142 -134.42269897 222.53057861 C-133.56594383 218.84045095 -132.70546374 215.15121972 -131.84204102 211.46264648 C-129.72161032 202.40314371 -127.61943747 193.3393947 -125.51544952 184.27606201 C-124.75493025 181.00081711 -123.99364561 177.72575064 -123.23236084 174.45068359 C-119.31111186 157.57011115 -115.4387339 140.67857642 -111.58504248 123.78248501 C-111.12592262 121.76966984 -110.66665691 119.756888 -110.20734024 117.74411774 C-107.49268347 105.84816184 -104.77889565 93.95200913 -102.07183838 82.05432129 C-100.65326781 75.81984901 -99.2317246 69.58606111 -97.80821609 63.35271454 C-97.28466595 61.05747386 -96.76223798 58.76197686 -96.24106979 56.46619415 C-93.83397289 45.86399244 -91.396902 35.27045017 -88.70507812 24.73632812 C-88.51608192 23.97622185 -88.32708572 23.21611557 -88.13236237 22.43297577 C-85.52854264 12.47168842 -79.99110282 4.09079344 -71.3515625 -1.625 C-68.74693891 -3.1467542 -66.09794247 -4.56088818 -63.4140625 -5.9375 C-62.75801025 -6.27547607 -62.10195801 -6.61345215 -61.42602539 -6.96166992 C-41.3565863 -16.74976612 -17.792576 -12.29520202 0 0 Z " fill="#23417F" transform="translate(2815.3515625,361.625)"/>
<path d="M0 0 C17.78246306 13.92733366 20.43620213 32.23326837 25.19921875 53.15625 C25.70814869 55.37520403 26.21751415 57.59405821 26.72727966 59.81282043 C28.10082781 65.7967003 29.46847128 71.78191506 30.83487701 77.76742935 C32.26620127 84.03340975 33.70239448 90.29827388 35.13818359 96.56323242 C36.92757097 104.37253475 38.71636652 112.18197048 40.50262451 119.99198914 C44.29802586 136.58513684 48.10932004 153.17454644 51.93492061 169.76075733 C53.82904745 177.9731548 55.72013457 186.18625241 57.6111021 194.39937782 C59.00494198 200.4525731 60.40016021 206.50544386 61.7984314 212.55761719 C63.10930231 218.23206078 64.4160431 223.90743972 65.71962166 229.58356285 C66.19872312 231.66630954 66.67934832 233.74870638 67.16158867 235.83072853 C67.81763097 238.66399767 68.46832921 241.49844199 69.11767578 244.33325195 C69.407146 245.57461536 69.407146 245.57461536 69.7024641 246.84105682 C70.49939477 250.3434563 71 253.38840438 71 257 C49.88 257 28.76 257 7 257 C0.3012232 229.7459622 -5.98391826 202.40752107 -12.20849609 175.04187012 C-14.55272514 164.73687928 -16.9005577 154.43270963 -19.25 144.12890625 C-19.49959473 143.03391438 -19.74918945 141.9389225 -20.00634766 140.81074905 C-24.2530736 122.18700685 -28.58003027 103.58338877 -33 85 C-36.31390871 99.46975926 -39.62703554 113.93969741 -42.9393425 128.40982342 C-44.47891519 135.13551693 -46.01870261 141.86116112 -47.55908203 148.58666992 C-49.04989191 155.09578983 -50.540073 161.60505347 -52.02983093 168.11441422 C-52.62449102 170.71246014 -53.21930912 173.3104699 -53.81428528 175.90844345 C-57.07822919 190.16222491 -60.32586088 204.41942131 -63.53320312 218.68603516 C-63.9543508 220.55687822 -63.9543508 220.55687822 -64.3840065 222.46551609 C-65.71727495 228.38842523 -67.04713113 234.31205478 -68.37030029 240.23722839 C-68.83948294 242.32461016 -69.30881394 244.4119586 -69.77832031 246.49926758 C-69.99036354 247.45541521 -70.20240677 248.41156284 -70.42087555 249.39668465 C-70.7130106 250.69031835 -70.7130106 250.69031835 -71.01104736 252.01008606 C-71.26301313 253.13714321 -71.26301313 253.13714321 -71.52006912 254.28696918 C-72 256 -72 256 -73 257 C-74.9943173 257.09405142 -76.99199543 257.11743249 -78.98852539 257.11352539 C-80.26977798 257.11344986 -81.55103058 257.11337433 -82.87110901 257.11329651 C-84.27995848 257.10818909 -85.68880756 257.10297309 -87.09765625 257.09765625 C-88.53112234 257.09579202 -89.96458907 257.09436814 -91.39805603 257.09336853 C-95.17759957 257.08954372 -98.9571049 257.07971377 -102.7366333 257.06866455 C-106.59069298 257.05844963 -110.44475882 257.05387074 -114.29882812 257.04882812 C-121.86590287 257.03809146 -129.43294609 257.02101549 -137 257 C-134.39129816 243.60789963 -131.53940824 230.29442005 -128.45703125 217.00390625 C-128.01498615 215.08754151 -127.57322273 213.17111177 -127.13171387 211.25462341 C-125.94274645 206.09665278 -124.75037298 200.9394755 -123.55722427 195.7824707 C-121.50955061 186.9289266 -119.46746036 178.07409132 -117.42461205 169.21943283 C-116.88931238 166.89943875 -116.35388167 164.5794749 -115.81832314 162.25954056 C-111.82870991 144.97626552 -107.86857342 127.68644151 -103.92881203 110.39173698 C-102.22230931 102.90258651 -100.51279883 95.41412173 -98.80366039 87.9255724 C-97.42424206 81.87996632 -96.04708878 75.83386058 -94.67471313 69.78665161 C-93.38093045 64.0858614 -92.08158747 58.38636601 -90.7782135 52.68776131 C-90.30086693 50.5959281 -89.82559747 48.50361959 -89.35261536 46.41079521 C-81.33020076 10.92768157 -81.33020076 10.92768157 -66 0 C-46.35670434 -11.84170306 -19.37451261 -13.81884475 0 0 Z " fill="#23417F" transform="translate(2142,359)"/>
<path d="M0 0 C0.82959229 0.00563965 1.65918457 0.0112793 2.51391602 0.01708984 C17.46504185 0.31090514 30.64755215 5.47120399 41.5 15.90625 C52.15129602 27.62267562 54.42996841 43.90528724 57.79296875 58.875 C58.18930131 60.62135127 58.58611078 62.36759436 58.98335266 64.11373901 C59.83755143 67.87254435 60.68876289 71.63200855 61.53759766 75.39202881 C62.89506512 81.40458046 64.25930484 87.41558205 65.625 93.42626953 C65.97595199 94.97099662 65.97595199 94.97099662 66.33399391 96.54693031 C66.8151925 98.66493587 67.2964072 100.78293777 67.77763748 102.90093613 C68.51998645 106.16921197 69.2616889 109.437634 70.00326538 112.70608521 C75.74614215 138.01058497 81.55435714 163.30008095 87.36145401 188.58990479 C89.48685195 197.84643718 91.61128988 207.1031899 93.73552513 216.35998917 C94.43870805 219.42379317 95.14221611 222.48752235 95.84577942 225.55123901 C96.91225859 230.19597858 97.97643222 234.84124235 99.03970337 239.48671722 C99.73200052 242.50661772 100.42744137 245.52578662 101.12280273 248.54498291 C101.58652726 250.56658643 102.05015344 252.5882125 102.51367188 254.60986328 C102.73206978 255.55482603 102.95046768 256.49978878 103.1754837 257.47338676 C103.37405724 258.34174219 103.57263077 259.21009762 103.77722168 260.10476685 C103.95347832 260.8711252 104.12973495 261.63748356 104.3113327 262.4270649 C104.6875 264.3125 104.6875 264.3125 104.6875 266.3125 C83.5675 266.3125 62.4475 266.3125 40.6875 266.3125 C39.40962349 263.11780873 38.40987686 260.56528142 37.67475891 257.31427002 C37.50019197 256.5516344 37.32562502 255.78899878 37.14576817 255.00325298 C36.86925623 253.76655975 36.86925623 253.76655975 36.5871582 252.50488281 C36.38635367 251.6222643 36.18554914 250.73964579 35.97865963 249.83028126 C35.31135877 246.89291904 34.6498597 243.95428089 33.98828125 241.015625 C33.51623567 238.93313472 33.04379506 236.85073395 32.57098389 234.76841736 C31.56524723 230.33581683 30.56193427 225.90267769 29.56057739 221.46908569 C27.22056889 211.10909717 24.86855446 200.75183168 22.51786613 190.39426231 C21.73361028 186.93803611 20.94984905 183.48169802 20.16615295 180.02534485 C15.73908863 160.50646039 11.26094428 140.99965195 6.75 121.5 C6.42858487 120.10998863 6.10718378 118.71997401 5.78579712 117.32995605 C4.0886184 109.99028146 2.38951082 102.65105563 0.6875 95.3125 C-3.25463517 109.23546896 -6.3693113 123.35766183 -9.57835913 137.46283102 C-10.387512 141.01632851 -11.20003637 144.56905494 -12.01223755 148.12185669 C-13.55114851 154.85555601 -15.08754424 161.58982617 -16.62280285 168.32435906 C-19.35879282 180.32592436 -22.09780608 192.32679894 -24.83966172 204.32702553 C-25.79613847 208.513747 -26.75113923 212.70080117 -27.70480704 216.88816333 C-28.15970043 218.88459123 -28.6152472 220.88086884 -29.07104492 222.87709045 C-29.61728566 225.26954784 -30.16260185 227.66221671 -30.70657349 230.05519104 C-33.47538894 242.16648867 -36.41248838 254.22911827 -39.3125 266.3125 C-60.4325 266.3125 -81.5525 266.3125 -103.3125 266.3125 C-102.18750046 257.31250371 -102.18750046 257.31250371 -101.4695282 254.18521118 C-101.22535062 253.10836658 -101.22535062 253.10836658 -100.97624016 252.00976753 C-100.79934214 251.2480921 -100.62244411 250.48641666 -100.44018555 249.70166016 C-100.25034655 248.86983656 -100.06050755 248.03801296 -99.86491585 247.18098259 C-99.23007019 244.40364277 -98.58961099 241.6276282 -97.94921875 238.8515625 C-97.48871908 236.84159232 -97.02857997 234.83153951 -96.56877136 232.82141113 C-95.3136915 227.33962614 -94.05362478 221.85899979 -92.79207611 216.37870026 C-90.62812069 206.977326 -88.46853356 197.57494607 -86.30825806 188.17272568 C-85.73731352 185.68835295 -85.16614385 183.20403195 -84.59475708 180.71976089 C-80.39899067 162.47607978 -76.25121879 144.22211998 -72.13541394 125.9602505 C-70.08760827 116.87672484 -68.02801419 107.79586784 -65.96750927 98.71521568 C-64.27231808 91.24190359 -62.58729945 83.76643248 -60.91450673 76.28807473 C-59.62279065 70.51826753 -58.31347206 64.75254187 -56.9979496 58.9881134 C-56.45993371 56.61759034 -55.92765761 54.24575594 -55.40163231 51.87254333 C-51.72127726 35.28721866 -48.37936437 21.23734331 -34.3125 10.3125 C-23.47825284 3.49554084 -12.84181614 -0.09239666 0 0 Z " fill="#23417F" transform="translate(1128.3125,349.6875)"/>
<path d="M0 0 C21.78 0 43.56 0 66 0 C66.06776302 27.32100765 66.12300867 54.64194708 66.15543652 81.96301746 C66.17089461 94.64912236 66.191964 107.33517127 66.22631836 120.02124023 C66.25625299 131.08051822 66.27558269 142.13975564 66.28226548 153.19907302 C66.28617083 159.05297631 66.29532708 164.9067636 66.31719017 170.76062965 C66.33761944 176.27549977 66.34382076 181.79020657 66.33932304 187.30511093 C66.34014536 189.32425894 66.34607244 191.34341267 66.35761642 193.36252785 C66.43014596 206.70798893 65.5289812 217.97806648 59.375 230.0625 C59.03017578 230.74368896 58.68535156 231.42487793 58.33007812 232.12670898 C55.08066548 238.28207078 51.02893656 243.18620511 46 248 C45.41089844 248.62003906 44.82179688 249.24007812 44.21484375 249.87890625 C40.09207115 253.92919054 35.40555682 256.61309628 30.3125 259.25 C29.37845337 259.7442749 29.37845337 259.7442749 28.42553711 260.24853516 C16.54870302 266.10088818 4.24798509 266.42277156 -8.67578125 266.29296875 C-10.33871575 266.28735872 -12.00165528 266.28309529 -13.66459656 266.28010559 C-17.99647222 266.26876737 -22.32803586 266.23939818 -26.65979004 266.20599365 C-31.8812592 266.16959162 -37.10283393 266.156079 -42.32439423 266.13863373 C-50.21647841 266.10975175 -58.10788086 266.05218888 -66 266 C-66 244.88 -66 223.76 -66 202 C-38.375 201.6875 -38.375 201.6875 -29.68115234 201.61206055 C-27.39939745 201.57976635 -25.11765748 201.54639203 -22.8359375 201.51171875 C-21.65749268 201.50547485 -20.47904785 201.49923096 -19.26489258 201.49279785 C-11.10997201 201.52311225 -11.10997201 201.52311225 -4 198 C-1.3387448 192.89873568 -0.56263757 188.66766115 -0.60127258 182.90711975 C-0.59462576 182.12118028 -0.58797893 181.3352408 -0.58113068 180.52548498 C-0.56256633 177.90756249 -0.5651015 175.29009969 -0.56762695 172.67211914 C-0.55860578 170.78933063 -0.54827769 168.90654799 -0.53674316 167.02377319 C-0.50918885 161.92309515 -0.49989074 156.8225286 -0.49388909 151.72178578 C-0.48450139 146.38726851 -0.45829764 141.05283438 -0.43388367 135.71836853 C-0.39022597 125.62152588 -0.36167448 115.52469936 -0.33856028 105.42779106 C-0.31150475 93.93082257 -0.26759342 82.43393774 -0.22227156 70.937029 C-0.12943565 47.29138587 -0.05997507 23.64575089 0 0 Z " fill="#23417F" transform="translate(954,350)"/>
<path d="M0 0 C63.797617 8.68042798 63.797617 8.68042798 83 22 C83.97839844 22.62519531 84.95679688 23.25039063 85.96484375 23.89453125 C90.5502954 27.80888856 91.77083924 33.61467086 93.5 39.1875 C94.07463989 40.98477539 94.07463989 40.98477539 94.66088867 42.81835938 C105.65963746 78.03282141 111.56295767 116.05604234 110 153 C109.95891113 154.02512695 109.91782227 155.05025391 109.87548828 156.10644531 C106.66881449 228.78422132 82.62257084 301.29395636 35.29980469 357.45605469 C33.94600549 359.06413623 32.61831544 360.69190709 31.2890625 362.3203125 C24.27383973 370.77343808 16.61612466 378.59292016 8.875 386.375 C8.11746933 387.14043121 8.11746933 387.14043121 7.34463501 387.92132568 C0.56863837 394.75192198 -6.44177502 401.02585237 -14 407 C-15.13448254 407.92895378 -16.26758453 408.85959994 -17.3984375 409.79296875 C-49.6116957 435.70730901 -91.19194267 460.44347185 -132 469 C-134.40625 468.609375 -134.40625 468.609375 -136 468 C-130.9328902 464.32147318 -125.78715332 460.83956881 -120.43603516 457.59082031 C-110.76346952 451.70645959 -101.87492222 445.01577698 -93 438 C-91.61361328 436.91912109 -91.61361328 436.91912109 -90.19921875 435.81640625 C-50.11485379 404.26062958 -15.84098599 365.36661266 11 322 C11.47646973 321.23107422 11.95293945 320.46214844 12.44384766 319.66992188 C56.40620224 248.34516603 82.71090353 169.65328708 89 61 C61.38336474 52.51645845 32.5121264 49.14429176 4 45 C3.42382884 40.03856868 2.85442584 35.07642204 2.29101562 30.11352539 C2.09881965 28.4287471 1.90484359 26.74417081 1.70898438 25.05981445 C1.42618919 22.62503445 1.15001285 20.18957612 0.875 17.75390625 C0.78750488 17.01290176 0.70000977 16.27189728 0.60986328 15.50843811 C0.03185456 10.31126596 -0.07234942 5.2295067 0 0 Z " fill="#6F80B1" transform="translate(667,338)"/>
<path d="M0 0 C0.99 0.495 0.99 0.495 2 1 C1 4 1 4 -0.75 5.02734375 C-1.86375 5.47787109 -1.86375 5.47787109 -3 5.9375 C-3.8146875 6.27523437 -4.629375 6.61296875 -5.46875 6.9609375 C-6.3040625 7.30382812 -7.139375 7.64671875 -8 8 C-9.501619 8.6839566 -11.00166965 9.37136875 -12.5 10.0625 C-15.48159978 11.39514547 -18.45013831 12.51237236 -21.5625 13.5 C-28.13890281 15.62327141 -33.76811932 18.4221044 -39 23 C-39.66 22.67 -40.32 22.34 -41 22 C-41.33 22.33 -41.66 22.66 -42 23 C-51.45433255 29.44613583 -51.45433255 29.44613583 -55.34375 30.83984375 C-58.36983203 32.16152958 -60.42545257 33.79703432 -62.9375 35.9375 C-67.18891675 39.50412479 -71.4927768 42.97077849 -75.875 46.375 C-91.99109316 58.98435067 -108.34384758 72.48856932 -121.625 88.125 C-124.30867282 91.22479288 -126.97207165 94.23160836 -130 97 C-130.66 97 -131.32 97 -132 97 C-132.22171875 97.5259375 -132.4434375 98.051875 -132.671875 98.59375 C-134.48346624 101.87592707 -136.86753909 104.62513068 -139.25 107.5 C-159.61603597 132.62358661 -176.39100492 160.89501057 -190.02612305 190.20581055 C-191 192 -191 192 -193.3125 194.125 C-199.09539526 200.31135307 -201.60784152 208.2777587 -204.10546875 216.23828125 C-205 219 -205 219 -206.05859375 221.58203125 C-206.95091504 223.873927 -207.44788884 225.96051448 -207.875 228.375 C-208.52084199 231.50604197 -209.33322802 233.81557057 -211.0625 236.5 C-213.21115361 239.90137416 -213.54291987 242.91014948 -213.7265625 246.88671875 C-214.03764927 249.29097511 -214.91246766 250.84545479 -216 253 C-216.3661072 254.69765266 -216.67474166 256.40831218 -216.9375 258.125 C-217.73015155 262.82429131 -218.87334965 267.27006858 -220.31640625 271.80859375 C-220.77075034 273.26509109 -221.17513215 274.73814959 -221.52734375 276.22265625 C-222 278 -222 278 -223 279 C-222.979375 280.19625 -222.95875 281.3925 -222.9375 282.625 C-222.87163729 286.71580637 -223.81620797 290.07868891 -225 294 C-225.03786901 295.66623639 -225.04627845 297.33397597 -225 299 C-225.33 299.99 -225.66 300.98 -226 302 C-226.144375 302.7425 -226.28875 303.485 -226.4375 304.25 C-227 307 -227 307 -228.0625 310.5 C-228.88588831 313.57398302 -229.09224711 315.86359831 -229 319 C-229.33 319.33 -229.66 319.66 -230 320 C-230.07279623 323.30312897 -229.99609386 326.5952085 -229.9375 329.8984375 C-230 333 -230 333 -231 336 C-231.14715199 337.62567079 -231.24721867 339.25586857 -231.31640625 340.88671875 C-231.35830078 341.82451172 -231.40019531 342.76230469 -231.44335938 343.72851562 C-231.48267578 344.70498047 -231.52199219 345.68144531 -231.5625 346.6875 C-231.60568359 347.67556641 -231.64886719 348.66363281 -231.69335938 349.68164062 C-231.79941654 352.12095546 -231.90147714 354.56037113 -232 357 C-232.33 357 -232.66 357 -233 357 C-233.63641965 353.71044223 -234.25673762 350.4180145 -234.875 347.125 C-235.04902344 346.22652344 -235.22304687 345.32804687 -235.40234375 344.40234375 C-238.40691806 328.26666692 -239.35000545 312.41301941 -239.31567383 296.02539062 C-239.31252456 292.89938053 -239.33604011 289.77433094 -239.36132812 286.6484375 C-239.421476 267.75199695 -237.6188405 249.0489099 -233.3125 230.625 C-233.05758789 229.51543945 -232.80267578 228.40587891 -232.54003906 227.26269531 C-227.66914025 206.65594178 -221.02320319 187.15043816 -212 168 C-211.60055176 167.14212891 -211.20110352 166.28425781 -210.78955078 165.40039062 C-201.6476741 145.91070351 -190.35731307 127.86984553 -177 111 C-176.22011719 110.00742187 -175.44023437 109.01484375 -174.63671875 107.9921875 C-169.85366239 102.02823446 -164.76773149 96.38548312 -159.56640625 90.7890625 C-157.42501785 88.46189155 -155.35657371 86.09941385 -153.3125 83.6875 C-150.51989948 80.47337487 -147.51883894 77.70700633 -144.26953125 74.9609375 C-141.60201916 72.6561336 -139.06281289 70.23312706 -136.5 67.8125 C-102.62422267 36.46686371 -59.52629842 18.3268218 -16 5 C-13.58977273 4.25934565 -11.17961302 3.5184714 -8.76953125 2.77734375 C-7.73030518 2.45886475 -6.6910791 2.14038574 -5.62036133 1.81225586 C-3.74018197 1.22944055 -1.86742424 0.62247475 0 0 Z " fill="#43619A" transform="translate(375,185)"/>
<path d="M0 0 C0.99 0.495 0.99 0.495 2 1 C-3.27066501 7.07054913 -8.77313142 12.80129613 -14.5 18.4375 C-19.61163826 23.48428254 -24.33024021 28.62885672 -28.77734375 34.28125 C-31.30244517 37.36995051 -34.00454357 40.23383745 -36.75 43.125 C-43.19462821 49.97589757 -48.84477218 57.35789572 -54.44482422 64.90527344 C-55.91382285 66.88392465 -57.39489604 68.85290967 -58.87890625 70.8203125 C-74.88117092 92.17171219 -87.98537627 115.21817411 -100 139 C-100.41137207 139.81194824 -100.82274414 140.62389648 -101.24658203 141.46044922 C-106.8294914 152.57706902 -111.43613013 163.95788732 -115.72705078 175.6340332 C-116.12520996 176.70613037 -116.52336914 177.77822754 -116.93359375 178.8828125 C-117.28478271 179.84590332 -117.63597168 180.80899414 -117.99780273 181.80126953 C-119 184 -119 184 -121 185 C-121.24859442 186.9150197 -121.48969134 188.83141128 -121.68652344 190.75244141 C-122.19363149 194.38829556 -123.43312291 197.72760726 -124.625 201.1875 C-130.609734 219.41022418 -134.90096983 238.24885022 -137.75830078 257.20800781 C-137.89606934 258.09327148 -138.03383789 258.97853516 -138.17578125 259.890625 C-138.28833252 260.66438477 -138.40088379 261.43814453 -138.5168457 262.23535156 C-138.75600708 263.10885254 -138.75600708 263.10885254 -139 264 C-139.66 264.33 -140.32 264.66 -141 265 C-141.06359381 253.33298268 -141.07220868 241.66701165 -141 230 C-140.99419922 228.97052246 -140.98839844 227.94104492 -140.98242188 226.88037109 C-140.35511992 172.14827576 -113.44588142 114.24104428 -80 72 C-79.22011719 71.00742187 -78.44023437 70.01484375 -77.63671875 68.9921875 C-72.85366239 63.02823446 -67.76773149 57.38548312 -62.56640625 51.7890625 C-60.42501785 49.46189155 -58.35657371 47.09941385 -56.3125 44.6875 C-53.51989948 41.47337487 -50.51883894 38.70700633 -47.26953125 35.9609375 C-44.60201916 33.6561336 -42.06281289 31.23312706 -39.5 28.8125 C-29.68687479 19.72028139 -18.78310825 12.03201745 -7.625 4.6875 C-6.527323 3.95756836 -6.527323 3.95756836 -5.4074707 3.21289062 C-3.64557811 2.0763747 -1.82704602 1.02851192 0 0 Z " fill="#7886B6" transform="translate(278,224)"/>
<path d="M0 0 C63.797617 8.68042798 63.797617 8.68042798 83 22 C83.97066406 22.60199219 84.94132813 23.20398438 85.94140625 23.82421875 C90.78554823 27.93979813 92.04234208 34.46233177 93.875 40.3125 C94.2771875 41.51068359 94.679375 42.70886719 95.09375 43.94335938 C97.10856134 50.16254743 98.5364101 55.45742227 98 62 C91.97454721 61.05455425 86.05717442 59.79282907 80.140625 58.32495117 C55.09164832 52.1314968 29.52047902 48.6195134 4 45 C3.42382884 40.03856868 2.85442584 35.07642204 2.29101562 30.11352539 C2.09881965 28.4287471 1.90484359 26.74417081 1.70898438 25.05981445 C1.42618919 22.62503445 1.15001285 20.18957612 0.875 17.75390625 C0.78750488 17.01290176 0.70000977 16.27189728 0.60986328 15.50843811 C0.03185456 10.31126596 -0.07234942 5.2295067 0 0 Z " fill="#FAC70B" transform="translate(667,338)"/>
<path d="M0 0 C6.68290628 0.58229984 12.85870445 1.81786761 19.3125 3.625 C20.26455322 3.89006348 21.21660645 4.15512695 22.19750977 4.42822266 C58.09969349 14.61639923 58.09969349 14.61639923 70 25 C70 25.66 70 26.32 70 27 C70.99 27 71.98 27 73 27 C78.33537021 36.32297467 83.49980876 45.70704839 88.1875 55.375 C88.58573975 56.17655518 88.98397949 56.97811035 89.39428711 57.80395508 C89.75272705 58.55700928 90.11116699 59.31006348 90.48046875 60.0859375 C90.79910889 60.7464209 91.11774902 61.4069043 91.44604492 62.08740234 C92.11778141 64.40665473 91.76517458 65.74246811 91 68 C90.41661865 67.61473145 89.8332373 67.22946289 89.23217773 66.83251953 C82.75053757 62.72699276 76.3830705 60.10597134 69.0625 57.875 C67.96059326 57.53299561 66.85868652 57.19099121 65.72338867 56.83862305 C46.54205473 51.01002553 26.75221538 48.18552403 7 45 C6.89453857 44.351521 6.78907715 43.70304199 6.68041992 43.03491211 C3.90395349 25.97228419 3.90395349 25.97228419 0.515625 9.0234375 C-0.00756001 5.95567083 -0.09326282 3.10565198 0 0 Z " fill="#F9C60B" transform="translate(658,285)"/>
<path d="M0 0 C0.99 0.495 0.99 0.495 2 1 C1.30374763 1.68625961 1.30374763 1.68625961 0.59342957 2.38638306 C-4.29993932 7.21262841 -9.18211497 12.04999966 -14.05834961 16.89355469 C-15.87199137 18.69224488 -17.68833277 20.48821773 -19.50756836 22.28125 C-29.74305066 32.37312581 -39.49902608 42.39530818 -48 54 C-49.07682302 55.39105339 -50.15688419 56.77961528 -51.2421875 58.1640625 C-58.51553591 67.6684912 -65.06673796 77.57066439 -71.49121094 87.66357422 C-73.02605646 90.04034957 -74.60657633 92.3816442 -76.1953125 94.72265625 C-78.42096745 98.04812737 -80.28350604 101.37838637 -82 105 C-82.73879337 106.41980401 -83.48420642 107.83617322 -84.234375 109.25 C-86.83513016 114.1603001 -89.42313211 119.07711918 -92 124 C-92.3520752 124.67256836 -92.70415039 125.34513672 -93.06689453 126.03808594 C-96.81140089 133.23252327 -100.09600907 140.43405322 -102.859375 148.0625 C-104 151 -104 151 -105.515625 153.9375 C-107.11733744 157.24208566 -108.02398594 160.46388556 -109 164 C-109.89801426 166.36134472 -110.81607215 168.71512759 -111.75 171.0625 C-115.31353364 180.27945086 -117.79427008 189.75831163 -120.29443359 199.30712891 C-121.04139888 202.15800332 -121.79044154 205.00812761 -122.55078125 207.85546875 C-122.89556519 209.1552063 -122.89556519 209.1552063 -123.24731445 210.48120117 C-124.01826689 213.06112862 -124.99990969 215.50187746 -126 218 C-126.34313915 220.2829596 -126.34313915 220.2829596 -126.4375 222.6875 C-126.87122095 228.47302765 -127.8318651 234.09221701 -128.84570312 239.796875 C-129.55321175 243.90521008 -130.12907227 247.98342839 -130.5 252.13671875 C-130.57549072 252.98105469 -130.65098145 253.82539063 -130.72875977 254.6953125 C-130.8640037 256.31001434 -130.98518588 257.92598059 -131.08959961 259.54296875 C-131.61518709 265.84181687 -133.42463049 270.42463049 -138 275 C-138.19393875 272.85473901 -138.37998676 270.70876323 -138.5625 268.5625 C-138.71912109 266.77005859 -138.71912109 266.77005859 -138.87890625 264.94140625 C-138.91886719 263.97074219 -138.95882812 263.00007813 -139 262 C-138.67 261.67 -138.34 261.34 -138 261 C-137.71612221 258.77854367 -137.55234827 256.55682352 -137.37890625 254.32421875 C-136.97858258 251.8686251 -136.11883503 250.2015786 -135 248 C-134.96079185 246.00038436 -134.95556653 243.99950636 -135 242 C-134.67 241.67 -134.34 241.34 -134 241 C-134.020625 240.113125 -134.04125 239.22625 -134.0625 238.3125 C-134 235 -134 235 -133 232.125 C-132.08949538 229.27967306 -131.91609413 227.65524059 -132 224.75 C-132 221 -132 221 -130 219 C-129.61359156 217.34483312 -129.29343163 215.67415255 -129 214 C-128.13860816 210.62362075 -127.27068273 207.24972345 -126.37304688 203.8828125 C-125.60633829 200.90584878 -124.99971622 198.20886285 -125.00390625 195.125 C-125 193 -125 193 -123 191 C-122.68755767 189.02975856 -122.68755767 189.02975856 -122.625 186.8125 C-122.27004217 182.83190149 -121.23862849 180.29571089 -119.05078125 176.890625 C-116.660193 172.58934354 -115.61554304 167.58250386 -114.48046875 162.8203125 C-114 161 -114 161 -113 159.0625 C-111.89694499 157.03474079 -111.89694499 157.03474079 -111.625 154.75 C-110.89198968 151.52475461 -109.57042115 148.97564184 -108.04296875 146.05859375 C-107.0656844 144.12964675 -106.23936372 142.19428064 -105.4375 140.1875 C-104.18810987 137.41711318 -103.41348813 135.78388253 -101 134 C-100.34 134 -99.68 134 -99 134 C-98.75507813 133.18917969 -98.51015625 132.37835938 -98.2578125 131.54296875 C-87.51424788 101.28081622 -66.65149075 73.03352065 -47 48 C-46.37738281 47.16082031 -45.75476563 46.32164062 -45.11328125 45.45703125 C-41.88188519 41.12187744 -38.58021861 37.65851043 -34.43359375 34.20703125 C-31.08865073 31.17349544 -28.06146948 27.8788563 -25 24.5625 C-18.16992936 17.17158396 -11.31566718 9.99947587 -3.6640625 3.4453125 C-2.39833536 2.34597202 -1.1854566 1.1854566 0 0 Z " fill="#2B5290" transform="translate(283,243)"/>
<path d="M0 0 C0.33 0.66 0.66 1.32 1 2 C-10.40480569 19.39392153 -22.68275393 36.01826896 -36 52 C-37.26082397 53.51835449 -37.26082397 53.51835449 -38.54711914 55.06738281 C-45.68368894 63.57376644 -53.24302144 71.55538598 -61.1184082 79.37915039 C-63.07155488 81.32150484 -65.0136762 83.27442958 -66.95507812 85.22851562 C-73.99939659 92.28064728 -81.1537038 98.8407338 -89 105 C-90.29449209 106.07185754 -91.58525794 107.14824205 -92.87109375 108.23046875 C-109.07557566 121.72040342 -126.36193663 133.49341743 -144.8203125 143.6640625 C-145.63935059 144.11555664 -146.45838867 144.56705078 -147.30224609 145.03222656 C-148.89809115 145.90766521 -150.49724298 146.77711081 -152.10009766 147.63964844 C-152.82503418 148.03442383 -153.5499707 148.42919922 -154.296875 148.8359375 C-154.93979492 149.18188965 -155.58271484 149.5278418 -156.24511719 149.88427734 C-158.11548421 151.07342277 -159.52960787 152.34566736 -161 154 C-161 154.33 -161 154.66 -161 155 C-167.435 155.99 -167.435 155.99 -174 157 C-174 156.34 -174 155.68 -174 155 C-173.41847168 154.73485596 -172.83694336 154.46971191 -172.23779297 154.1965332 C-151.33867976 144.60158718 -131.6293019 133.50101093 -113 120 C-112.00709961 119.28312012 -112.00709961 119.28312012 -110.99414062 118.55175781 C-101.25879817 111.48548293 -92.00098576 103.97736667 -83 96 C-82.11828125 95.21882812 -81.2365625 94.43765625 -80.328125 93.6328125 C-77.87273604 91.43547397 -75.43570935 89.21911741 -73 87 C-71.98867139 86.09331465 -70.97693245 85.18708683 -69.96484375 84.28125 C-64.86718464 79.69564842 -59.98024482 75.08110526 -55.56640625 69.81640625 C-54.00058084 68.00067355 -52.3509788 66.35057296 -50.625 64.6875 C-46.91382598 61.03405535 -43.69296605 57.04853954 -40.43359375 52.9921875 C-38.38482334 50.47315358 -36.28796525 48.0091302 -34.15917969 45.55786133 C-23.64487027 33.39473435 -14.35919824 20.21754193 -5.375 6.89916992 C-3.69944571 4.42106909 -2.12096785 2.12096785 0 0 Z " fill="#224E8C" transform="translate(672,658)"/>
<path d="M0 0 C0.99 0.495 0.99 0.495 2 1 C1.53583176 1.45750641 1.07166351 1.91501282 0.59342957 2.38638306 C-4.29993932 7.21262841 -9.18211497 12.04999966 -14.05834961 16.89355469 C-15.87199137 18.69224488 -17.68833277 20.48821773 -19.50756836 22.28125 C-29.74305066 32.37312581 -39.49902608 42.39530818 -48 54 C-49.07682302 55.39105339 -50.15688419 56.77961528 -51.2421875 58.1640625 C-58.51553591 67.6684912 -65.06673796 77.57066439 -71.49121094 87.66357422 C-73.02605646 90.04034957 -74.60657633 92.3816442 -76.1953125 94.72265625 C-78.4211451 98.04857979 -80.28092982 101.37917916 -82 105 C-82.77384634 106.47847012 -83.55443956 107.95341842 -84.33984375 109.42578125 C-84.76330078 110.22306641 -85.18675781 111.02035156 -85.62304688 111.84179688 C-86.49362856 113.47817999 -87.36600149 115.11361149 -88.24023438 116.74804688 C-91.06314939 122.07260433 -93.62820375 127.45971657 -96 133 C-96.66 132.67 -97.32 132.34 -98 132 C-95.94326626 125.41711292 -92.86028237 119.54214782 -89.6875 113.4375 C-89.37798401 112.8414093 -89.06846802 112.2453186 -88.74957275 111.63116455 C-77.52121503 90.07625875 -64.19791767 70.00216104 -49.23828125 50.8671875 C-47.83991493 49.07591197 -46.45910342 47.27062606 -45.10546875 45.4453125 C-41.87612525 41.11522211 -38.57622878 37.65518945 -34.43359375 34.20703125 C-31.08865073 31.17349544 -28.06146948 27.8788563 -25 24.5625 C-18.16992936 17.17158396 -11.31566718 9.99947587 -3.6640625 3.4453125 C-2.39833536 2.34597202 -1.1854566 1.1854566 0 0 Z " fill="#224D8B" transform="translate(283,243)"/>
<path d="M0 0 C-2.84581861 1.89721241 -4.00253212 2.34791281 -7.23046875 2.8515625 C-8.03291016 2.98046875 -8.83535156 3.109375 -9.66210938 3.2421875 C-10.49548828 3.36851562 -11.32886719 3.49484375 -12.1875 3.625 C-13.03248047 3.7590625 -13.87746094 3.893125 -14.74804688 4.03125 C-16.83099945 4.36075662 -18.91537427 4.68124989 -21 5 C-21 4.67 -21 4.34 -21 4 C-44.35089438 3.27196981 -68.10406477 6.28657723 -90.07885742 14.52929688 C-92 15 -92 15 -95 14 C-94.34 13.34 -93.68 12.68 -93 12 C-92.58105469 11.4946875 -92.16210938 10.989375 -91.73046875 10.46875 C-89.37798379 8.47205848 -87.32471931 8.13494711 -84.3125 7.5 C-83.15339111 7.2539502 -81.99428223 7.00790039 -80.80004883 6.75439453 C-79.54603271 6.50544434 -78.2920166 6.25649414 -77 6 C-76.35308197 5.87026794 -75.70616394 5.74053589 -75.03964233 5.60687256 C-49.96396194 0.61180902 -25.47159338 -0.45035458 0 0 Z " fill="#254D8B" transform="translate(469,175)"/>
<path d="M0 0 C0.33 0.66 0.66 1.32 1 2 C-0.06054688 4.43920898 -0.06054688 4.43920898 -1.71875 7.49609375 C-2.32203125 8.61306641 -2.9253125 9.73003906 -3.546875 10.88085938 C-3.86849609 11.46633545 -4.19011719 12.05181152 -4.52148438 12.6550293 C-5.4764771 14.39465052 -6.41810489 16.14158754 -7.359375 17.88867188 C-18.17639594 37.78426396 -18.17639594 37.78426396 -23 41 C-19.64087664 34.18668376 -15.97388484 27.53574925 -12 21.0625 C-9.15922404 16.40243445 -6.75081379 11.58434394 -4.39453125 6.6640625 C-3.11474549 4.21920566 -1.72440519 2.14660469 0 0 Z " fill="#224E8C" transform="translate(699,611)"/>
<path d="M0 0 C1.91796875 0.12890625 1.91796875 0.12890625 4 1 C5.30078125 3.21484375 5.30078125 3.21484375 6.3125 5.9375 C6.65925781 6.83339844 7.00601563 7.72929687 7.36328125 8.65234375 C8 11 8 11 7 13 C4.03 11.02 1.06 9.04 -2 7 C-1.125 1.125 -1.125 1.125 0 0 Z " fill="#38598E" transform="translate(747,351)"/>
<path d="M0 0 C0.66 0.33 1.32 0.66 2 1 C-2.41009417 5.85110358 -7.58004353 9.348107 -13 13 C-13.66 12.67 -14.32 12.34 -15 12 C-10.20968493 7.61420043 -5.54110713 3.40991208 0 0 Z " fill="#224D8B" transform="translate(320,214)"/>
<path d="M0 0 C0 3.37465686 -0.81493079 5.53965992 -2 8.6875 C-2.556875 10.17830078 -2.556875 10.17830078 -3.125 11.69921875 C-3.41375 12.45847656 -3.7025 13.21773438 -4 14 C-4.66 14 -5.32 14 -6 14 C-5.41162314 9.29298514 -3.44104424 3.44104424 0 0 Z " fill="#244E8C" transform="translate(181,385)"/>
<path d="M0 0 C0.33 0.99 0.66 1.98 1 3 C-0.4375 5.6875 -0.4375 5.6875 -2 8 C-2.66 7.01 -3.32 6.02 -4 5 C-3 2 -3 2 0 0 Z " fill="#5971A6" transform="translate(160,406)"/>
<path d="M0 0 C0.33 0 0.66 0 1 0 C1 2.31 1 4.62 1 7 C0.01 7 -0.98 7 -2 7 C-2.125 4.625 -2.125 4.625 -2 2 C-1.34 1.34 -0.68 0.68 0 0 Z " fill="#395896" transform="translate(146,503)"/>
<path d="M0 0 C1.13643966 3.40931897 0.86747764 4.00335456 -0.4375 7.1875 C-0.86869141 8.26064453 -0.86869141 8.26064453 -1.30859375 9.35546875 C-1.53675781 9.89816406 -1.76492187 10.44085938 -2 11 C-2.33 11 -2.66 11 -3 11 C-3.32613618 6.32538149 -2.70582788 3.83325617 0 0 Z " fill="#848FBA" transform="translate(144,414)"/>
</svg>
